<svg xmlns="http://www.w3.org/2000/svg" xmlns:xlink="http://www.w3.org/1999/xlink" width="500" zoomAndPan="magnify" viewBox="0 0 375 374.999991" height="500" preserveAspectRatio="xMidYMid meet" version="1.0"><defs><g/><clipPath id="a66aeade44"><path d="M 2.429688 2.429688 L 372.570312 2.429688 L 372.570312 372.566406 L 2.429688 372.566406 Z M 2.429688 2.429688 " clip-rule="nonzero"/></clipPath><clipPath id="6a5e1ef35a"><path d="M 187.5 2.429688 C 85.289062 2.429688 2.429688 85.289062 2.429688 187.5 C 2.429688 289.710938 85.289062 372.570312 187.5 372.570312 C 289.710938 372.570312 372.570312 289.710938 372.570312 187.5 C 372.570312 85.289062 289.710938 2.429688 187.5 2.429688 Z M 187.5 2.429688 " clip-rule="nonzero"/></clipPath></defs><g clip-path="url(#a66aeade44)"><g clip-path="url(#6a5e1ef35a)"><path fill="#0097b2" d="M 2.429688 2.429688 L 372.570312 2.429688 L 372.570312 372.566406 L 2.429688 372.566406 Z M 2.429688 2.429688 " fill-opacity="1" fill-rule="nonzero"/></g></g><g fill="#ffffff" fill-opacity="1"><g transform="translate(117.648638, 233.383425)"><g><path d="M 61.359375 -21.164062 L 0 -21.164062 L 0 -1.277344 C 0 -0.710938 0.710938 0 1.5625 0 L 61.359375 0 C 62.351562 0 62.921875 -0.710938 62.921875 -1.277344 L 62.921875 -19.742188 C 62.921875 -20.453125 62.351562 -21.164062 61.359375 -21.164062 Z M 21.730469 -42.894531 L 21.730469 -112.351562 C 21.730469 -112.917969 21.164062 -113.628906 20.3125 -113.628906 L 1.5625 -113.628906 C 0.710938 -113.628906 0 -112.917969 0 -112.351562 L 0 -42.894531 Z M 21.730469 -42.894531 "/></g></g></g><g fill="#ffffff" fill-opacity="1"><g transform="translate(180.66304, 283.366563)"><g><path d="M 94.027344 -113.628906 L 75.703125 -113.628906 C 74.710938 -113.628906 74 -112.917969 74 -112.351562 L 74 -38.347656 L 21.589844 -113.203125 C 21.449219 -113.484375 20.59375 -113.628906 20.3125 -113.628906 L 1.421875 -113.628906 C 0.710938 -113.628906 0 -112.917969 0 -112.351562 L 0 -27.269531 L 21.730469 -27.269531 L 21.730469 -75.277344 L 74 -0.425781 C 74.140625 -0.140625 74.996094 0 75.277344 0 L 94.027344 0 C 95.019531 0 95.589844 -0.710938 95.589844 -1.277344 L 95.589844 -112.351562 C 95.589844 -112.917969 95.019531 -113.628906 94.027344 -113.628906 Z M 94.027344 -113.628906 "/></g></g></g></svg>